# xmcd CD database file
#
# Track frame offsets:
#	150
#	8940
#	19894
#	30172
#	40778
#	52056
#	63612
#	74500
#	85097
#	98683
#	109050
#	121927
#	130607
#	142297
#	152438
#	166221
#	180086
#	196003
#	205571
#	217749
#	234021
#	251036
#	263394
#
# Disc length: 3752 seconds
#
# Revision: 0
# Processed by: cddbd v1.5.2PL0 Copyright (c) Steve Scherf et al.
# Submitted via: CDex 1.51
#
DISCID=1f0ea617
DTITLE=Various Artist - Rockin' The Joint Tonite
DYEAR=2000
DGENRE=Blues
TTITLE0=Kid Thomas-Rockin' This Joint Tonite
TTITLE1=Kid Thomas-You Are An Angel
TTITLE2=Kid Thomas-Wail Baby Wail
TTITLE3=Kid Thomas-Lookie There
TTITLE4=Kid Thomas-Cozy Lounge Blues
TTITLE5=Kid Thomas-Five Long Years
TTITLE6=Floyd Dixon-Don't Leave Me Baby
TTITLE7=Floyd Dixon-Late Freight Twist
TTITLE8=Floyd Dixon-Me Quieres
TTITLE9=Floyd Dixon-Tell Me Tell Mer
TTITLE10=Ace Holder-Leave My Woman Alone
TTITLE11=Ace Holder-When You Are Around
TTITLE12=Ace Holder-Happy Anniversary
TTITLE13=Ace Holder-Wabba Suzy Q
TTITLE14=Jimmy McCracklin-Where I Got My Start
TTITLE15=Jimmy McCracklin-Cry On
TTITLE16=Jimmy McCracklin-Copyright On Your Love
TTITLE17=Jimmy McCracklin-Make Love To Me
TTITLE18=Jimmy McCracklin-Sue And Pat
TTITLE19=Jimmy McCracklin-Reconsider Baby
TTITLE20=Jimmy McCracklin-I Got To Know
TTITLE21=Jimmy McCracklin-Arkansas
TTITLE22=Jimmy McCracklin-You're The One
EXTD=YEAR: 2000
EXTT0=
EXTT1=
EXTT2=
EXTT3=
EXTT4=
EXTT5=
EXTT6=
EXTT7=
EXTT8=
EXTT9=
EXTT10=
EXTT11=
EXTT12=
EXTT13=
EXTT14=
EXTT15=
EXTT16=
EXTT17=
EXTT18=
EXTT19=
EXTT20=
EXTT21=
EXTT22=
PLAYORDER=
